<?xml version="1.0" encoding="UTF-8" standalone="no"?>
<svg width="55px" height="57px" viewBox="0 0 55 57" version="1.1" xmlns="http://www.w3.org/2000/svg" xmlns:xlink="http://www.w3.org/1999/xlink" xmlns:sketch="http://www.bohemiancoding.com/sketch/ns">
    <!-- Generator: Sketch 3.3.2 (12043) - http://www.bohemiancoding.com/sketch -->
    <title>Shape</title>
    <desc>Created with Sketch.</desc>
    <defs></defs>
    <g id="Main" stroke="none" stroke-width="1" fill="none" fill-rule="evenodd" sketch:type="MSPage">
        <g id="Homepage_new" sketch:type="MSArtboardGroup" transform="translate(-543.000000, -813.000000)" fill="#1E7BE2">
            <g id="Rectangle-141-Copy-2-+-Group-+-Group-Copy-2" sketch:type="MSLayerGroup" transform="translate(0.000000, 759.050000)">
                <g id="Group-Copy-2" transform="translate(409.000000, 51.000000)" sketch:type="MSShapeGroup">
                    <g id="icon-easy" transform="translate(133.679688, 2.475000)">
                        <path d="M44.0417668,28.3112889 C47.6733721,28.3112889 55.2436899,17.7071643 55.2436899,11.9070931 C55.2436899,5.62293699 50.230301,0.52527496 44.0417668,0.52527496 C37.8532327,0.52527496 32.8398438,5.62293699 32.8398438,11.9070931 C32.8398438,17.7071643 40.4101615,28.3112889 44.0417668,28.3112889 L44.0417668,28.3112889 Z M44.0417668,27.3112889 C41.0488496,27.3112889 33.8398438,17.2132721 33.8398438,11.9070931 C33.8398438,6.17152483 38.4092831,1.52527496 44.0417668,1.52527496 C49.6742505,1.52527496 54.2436899,6.17152483 54.2436899,11.9070931 C54.2436899,17.2132721 47.0346841,27.3112889 44.0417668,27.3112889 Z M12.0417668,56.3112889 C15.6733721,56.3112889 23.2436899,45.7071643 23.2436899,39.9070931 C23.2436899,33.622937 18.230301,28.525275 12.0417668,28.525275 C5.85323269,28.525275 0.83984375,33.622937 0.83984375,39.9070931 C0.83984375,45.7071643 8.41016153,56.3112889 12.0417668,56.3112889 L12.0417668,56.3112889 Z M12.0417668,55.3112889 C9.04884958,55.3112889 1.83984375,45.2132721 1.83984375,39.9070931 C1.83984375,34.1715248 6.40928314,29.525275 12.0417668,29.525275 C17.6742505,29.525275 22.2436899,34.1715248 22.2436899,39.9070931 C22.2436899,45.2132721 15.0346841,55.3112889 12.0417668,55.3112889 L12.0417668,55.3112889 Z M43.9263822,14.8525477 C46.7374827,14.8525477 49.0129207,12.5388605 49.0129207,9.68891132 C49.0129207,6.83896216 46.7374827,4.52527496 43.9263822,4.52527496 C41.1152817,4.52527496 38.8398438,6.83896216 38.8398438,9.68891132 C38.8398438,12.5388605 41.1152817,14.8525477 43.9263822,14.8525477 Z M43.9263822,13.8525477 C41.6713322,13.8525477 39.8398438,11.9902726 39.8398438,9.68891132 C39.8398438,7.38755 41.6713322,5.52527496 43.9263822,5.52527496 C46.1814322,5.52527496 48.0129207,7.38755 48.0129207,9.68891132 C48.0129207,11.9902726 46.1814322,13.8525477 43.9263822,13.8525477 Z M11.9263822,42.8525477 C14.7374827,42.8525477 17.0129207,40.5388605 17.0129207,37.6889113 C17.0129207,34.8389622 14.7374827,32.525275 11.9263822,32.525275 C9.11528174,32.525275 6.83984375,34.8389622 6.83984375,37.6889113 C6.83984375,40.5388605 9.11528174,42.8525477 11.9263822,42.8525477 Z M11.9263822,41.8525477 C9.67133219,41.8525477 7.83984375,39.9902726 7.83984375,37.6889113 C7.83984375,35.38755 9.67133219,33.525275 11.9263822,33.525275 C14.1814322,33.525275 16.0129207,35.38755 16.0129207,37.6889113 C16.0129207,39.9902726 14.1814322,41.8525477 11.9263822,41.8525477 Z M17.2600188,56.8907062 C17.3759648,56.9094575 17.5929558,56.9417054 17.9003562,56.9829331 C18.4104601,57.051347 18.9896293,57.1196907 19.627247,57.1834416 C22.9303963,57.5137005 26.3712944,57.5956594 29.5960291,57.2751936 C34.3487577,56.8028798 38.0185022,55.5076093 40.1791366,53.16265 C42.7146029,50.4108818 42.7867491,48.2203601 40.8995458,45.7952277 C40.4972593,45.2782734 40.0218916,44.7573201 39.3280341,44.053459 C39.3761426,44.102261 37.9388664,42.6635751 37.5258605,42.2329029 C35.8436588,40.478745 34.7553171,38.9982811 34.0225762,37.2580053 C32.5818647,33.8362839 33.3156162,31.1432676 35.42745,29.0539437 C35.9019915,28.5844603 36.4115884,28.1856403 36.9205435,27.8574643 C37.2229784,27.6624532 37.4543475,27.5360413 37.578564,27.4773447 C37.8282353,27.3593664 37.9349934,27.0613275 37.8170151,26.8116563 C37.6990367,26.561985 37.4009979,26.4552269 37.1513266,26.5732052 C36.9893995,26.6497214 36.7200172,26.7969023 36.3786289,27.0170307 C35.8145452,27.3807539 35.2511034,27.8217139 34.7241421,28.3430584 C32.3392459,30.7025341 31.4899,33.8198051 33.1009395,37.6460592 C33.8895737,39.5190829 35.0446814,41.090368 36.8041054,42.9250514 C37.2254923,43.3644631 38.6703918,44.8107799 38.6158847,44.755487 C39.2846305,45.4338743 39.7371287,45.9297649 40.1103496,46.4093689 C41.6995301,48.4515299 41.6453834,50.0955463 39.4437171,52.4850379 C37.4864002,54.6093346 34.0287062,55.8297599 29.4971388,56.2800953 C26.3477045,56.5930779 22.9693421,56.5126085 19.7267339,56.1884028 C19.1006246,56.1258025 18.5325652,56.0587698 18.0332835,55.9918074 C17.7350525,55.9518093 17.5269446,55.9208816 17.4196687,55.9035325 C17.1470682,55.8594464 16.890343,56.044694 16.8462569,56.3172945 C16.8021708,56.589895 16.9874184,56.8466201 17.2600188,56.8907062 Z" id="Shape"></path>
                    </g>
                </g>
            </g>
        </g>
    </g>
</svg>