<?xml version="1.0" encoding="UTF-8" standalone="no"?>
<svg width="56px" height="52px" viewBox="0 0 56 52" version="1.1" xmlns="http://www.w3.org/2000/svg" xmlns:xlink="http://www.w3.org/1999/xlink" xmlns:sketch="http://www.bohemiancoding.com/sketch/ns">
    <!-- Generator: Sketch 3.3.2 (12043) - http://www.bohemiancoding.com/sketch -->
    <title>icon-pricing</title>
    <desc>Created with Sketch.</desc>
    <defs></defs>
    <g id="Main" stroke="none" stroke-width="1" fill="none" fill-rule="evenodd" sketch:type="MSPage">
        <g id="Homepage_new" sketch:type="MSArtboardGroup" transform="translate(-932.000000, -811.000000)" fill="#1E7BE2">
            <g id="icon-pricing" sketch:type="MSLayerGroup" transform="translate(932.000000, 811.000000)">
                <path d="M30.5,37.8342262 L30.5,46 L31,45.5 L1,45.5 L1.5,46 L1.5,1 L1,1.5 L31,1.5 L30.5,1 L30.5,12.2340354 C30.5,12.5101777 30.7238576,12.7340354 31,12.7340354 C31.2761424,12.7340354 31.5,12.5101777 31.5,12.2340354 L31.5,1 C31.5,0.723857625 31.2761424,0.5 31,0.5 L1,0.5 C0.723857625,0.5 0.5,0.723857625 0.5,1 L0.5,46 C0.5,46.2761424 0.723857625,46.5 1,46.5 L31,46.5 C31.2761424,46.5 31.5,46.2761424 31.5,46 L31.5,37.8342262 C31.5,37.5580839 31.2761424,37.3342262 31,37.3342262 C30.7238576,37.3342262 30.5,37.5580839 30.5,37.8342262 L30.5,37.8342262 Z" id="Shape" sketch:type="MSShapeGroup"></path>
                <path d="M28,38.5 C35.4558441,38.5 41.5,32.4558441 41.5,25 C41.5,17.5441559 35.4558441,11.5 28,11.5 C20.5441559,11.5 14.5,17.5441559 14.5,25 C14.5,32.4558441 20.5441559,38.5 28,38.5 L28,38.5 Z M28,37.5 C21.0964406,37.5 15.5,31.9035594 15.5,25 C15.5,18.0964406 21.0964406,12.5 28,12.5 C34.9035594,12.5 40.5,18.0964406 40.5,25 C40.5,31.9035594 34.9035594,37.5 28,37.5 L28,37.5 Z" id="Shape" sketch:type="MSShapeGroup"></path>
                <path d="M28,32.9940245 L28,33.9940245 C28,34.2701668 28.2238576,34.4940245 28.5,34.4940245 C28.7761424,34.4940245 29,34.2701668 29,33.9940245 L29,32.9940245 C29,32.7178821 28.7761424,32.4940245 28.5,32.4940245 C28.2238576,32.4940245 28,32.7178821 28,32.9940245 L28,32.9940245 Z" id="Shape" sketch:type="MSShapeGroup"></path>
                <path d="M28,15.9940245 L28,17.9940245 C28,18.2701668 28.2238576,18.4940245 28.5,18.4940245 C28.7761424,18.4940245 29,18.2701668 29,17.9940245 L29,15.9940245 C29,15.7178821 28.7761424,15.4940245 28.5,15.4940245 C28.2238576,15.4940245 28,15.7178821 28,15.9940245 L28,15.9940245 Z" id="Shape" sketch:type="MSShapeGroup"></path>
                <path d="M24.2132595,28.4940245 C24.2132595,30.7031635 26.0041205,32.4940245 28.2132595,32.4940245 C30.4223985,32.4940245 32.2132595,30.7031635 32.2132595,28.4940245 C32.2132595,26.2848855 30.4223985,24.4940245 28.2132595,24.4940245 C27.9371171,24.4940245 27.7132595,24.7178821 27.7132595,24.9940245 C27.7132595,25.2701668 27.9371171,25.4940245 28.2132595,25.4940245 C29.8701137,25.4940245 31.2132595,26.8371702 31.2132595,28.4940245 C31.2132595,30.1508787 29.8701137,31.4940245 28.2132595,31.4940245 C26.5564052,31.4940245 25.2132595,30.1508787 25.2132595,28.4940245 C25.2132595,28.2178821 24.9894019,27.9940245 24.7132595,27.9940245 C24.4371171,27.9940245 24.2132595,28.2178821 24.2132595,28.4940245 L24.2132595,28.4940245 Z" id="Shape" sketch:type="MSShapeGroup"></path>
                <path d="M32.2132595,21.4940245 C32.2132595,19.2848855 30.4223985,17.4940245 28.2132595,17.4940245 C26.0041205,17.4940245 24.2132595,19.2848855 24.2132595,21.4940245 C24.2132595,23.7031635 26.0041205,25.4940245 28.2132595,25.4940245 C28.4894019,25.4940245 28.7132595,25.2701668 28.7132595,24.9940245 C28.7132595,24.7178821 28.4894019,24.4940245 28.2132595,24.4940245 C26.5564052,24.4940245 25.2132595,23.1508787 25.2132595,21.4940245 C25.2132595,19.8371702 26.5564052,18.4940245 28.2132595,18.4940245 C29.8701137,18.4940245 31.2132595,19.8371702 31.2132595,21.4940245 C31.2132595,21.7701668 31.4371171,21.9940245 31.7132595,21.9940245 C31.9894019,21.9940245 32.2132595,21.7701668 32.2132595,21.4940245 L32.2132595,21.4940245 Z" id="Shape" sketch:type="MSShapeGroup"></path>
                <path d="M37.6464466,34.8007755 L54.2144875,51.3688164 L54.5680408,51.7223698 L55.2751476,51.015263 L54.9215942,50.6617096 L38.3535534,34.0936688 L38,33.7401154 L37.2928932,34.4472222 L37.6464466,34.8007755 L37.6464466,34.8007755 Z" id="Shape" sketch:type="MSShapeGroup"></path>
                <path d="M8,8 L24,8 L24.5,8 L24.5,7 L24,7 L8,7 L7.5,7 L7.5,8 L8,8 L8,8 Z" id="Shape" sketch:type="MSShapeGroup"></path>
                <path d="M8,15 L19.0453606,15 L19.5453606,15 L19.5453606,14 L19.0453606,14 L8,14 L7.5,14 L7.5,15 L8,15 L8,15 Z" id="Shape" sketch:type="MSShapeGroup"></path>
                <path d="M8,37 L22,37 L22.5,37 L22.5,36 L22,36 L8,36 L7.5,36 L7.5,37 L8,37 L8,37 Z" id="Shape" sketch:type="MSShapeGroup"></path>
                <path d="M8,22 L15,22 L15.5,22 L15.5,21 L15,21 L8,21 L7.5,21 L7.5,22 L8,22 L8,22 Z" id="Shape" sketch:type="MSShapeGroup"></path>
                <path d="M8,30 L15,30 L15.5,30 L15.5,29 L15,29 L8,29 L7.5,29 L7.5,30 L8,30 L8,30 Z" id="Shape" sketch:type="MSShapeGroup"></path>
            </g>
        </g>
    </g>
</svg>