<?xml version="1.0" encoding="UTF-8" standalone="no"?>
<svg width="55px" height="63px" viewBox="0 0 55 63" version="1.1" xmlns="http://www.w3.org/2000/svg" xmlns:xlink="http://www.w3.org/1999/xlink" xmlns:sketch="http://www.bohemiancoding.com/sketch/ns">
    <!-- Generator: Sketch 3.3.2 (12043) - http://www.bohemiancoding.com/sketch -->
    <title>icon-shield</title>
    <desc>Created with Sketch.</desc>
    <defs></defs>
    <g id="Main" stroke="none" stroke-width="1" fill="none" fill-rule="evenodd" sketch:type="MSPage">
        <g id="Homepage_new" sketch:type="MSArtboardGroup" transform="translate(-1323.000000, -810.000000)" fill="#1E7BE2">
            <g id="Rectangle-141-Copy-2-+-Group-+-Group-Copy-2" sketch:type="MSLayerGroup" transform="translate(0.000000, 759.050000)">
                <g id="Group-Copy-2" transform="translate(409.000000, 50.000000)" sketch:type="MSShapeGroup">
                    <g id="icon-shield" transform="translate(914.179688, 0.475000)">
                        <g id="Shield">
                            <path d="M1.10586036,7.22940584 L27.6058604,1.4886651 L27.3941396,1.4886651 L53.8941396,7.22940584 L53.5,6.74074074 L53.5,21.5754454 C53.5,36.0285863 43.257835,53.550662 30.6647844,60.6436031 L27.2546237,62.5643505 L27.7453763,62.5643505 L24.3352156,60.6436031 C11.7428599,53.5510534 1.5,36.0242612 1.5,21.5754454 L1.5,6.74074074 L1.10586036,7.22940584 L1.10586036,7.22940584 Z M0.894139635,6.25207564 C0.664126353,6.30190381 0.5,6.50539215 0.5,6.74074074 L0.5,21.5754454 C0.5,36.3853163 10.9374918,54.2451475 23.844463,61.5149021 L27.2546237,63.4356495 C27.4069572,63.5214502 27.5930428,63.5214502 27.7453763,63.4356495 L31.155537,61.5149021 C44.063174,54.2447725 54.5,36.389675 54.5,21.5754454 L54.5,6.74074074 C54.5,6.50539215 54.3358736,6.30190381 54.1058604,6.25207564 L27.6058604,0.511334897 L27.3941396,0.511334897 L0.894139635,6.25207564 L0.894139635,6.25207564 Z" id="Shape"></path>
                        </g>
                        <g id="Shield" transform="translate(7.000000, 6.000000)">
                            <path d="M1.11111068,5.93194256 L20.6111107,1.48749812 L20.3888893,1.48749812 L39.8888893,5.93194256 L39.5,5.44444444 L39.5,17.9539652 C39.5,28.5400405 32.0832385,41.5546603 22.9770227,46.9509364 L20.2450988,48.5698542 L20.7549012,48.5698542 L18.0229773,46.9509364 C8.91320346,41.5525519 1.5,28.5437314 1.5,17.9539652 L1.5,5.44444444 L1.11111068,5.93194256 L1.11111068,5.93194256 Z M0.888889318,4.95694633 C0.661389313,5.00879818 0.5,5.21111021 0.5,5.44444444 L0.5,17.9539652 C0.5,28.8969588 8.09955,42.2327835 17.5131749,47.8112279 L20.2450988,49.4301458 C20.4022708,49.5232847 20.5977292,49.5232847 20.7549012,49.4301458 L23.4868251,47.8112279 C32.8968872,42.2348948 40.5,28.8932735 40.5,17.9539652 L40.5,5.44444444 C40.5,5.21111021 40.3386107,5.00879818 40.1111107,4.95694633 L20.6111107,0.512501881 L20.3888893,0.512501881 L0.888889318,4.95694633 L0.888889318,4.95694633 Z" id="Shape"></path>
                        </g>
                        <polygon id="Star-1" points="28 34 22.1221475 37.0901699 23.2447174 30.545085 18.4894348 25.9098301 25.0610737 24.954915 28 19 30.9389263 24.954915 37.5105652 25.9098301 32.7552826 30.545085 33.8778525 37.0901699 "></polygon>
                    </g>
                </g>
            </g>
        </g>
    </g>
</svg>